<svg width="48" height="48" viewBox="0 0 48 48" fill="none" xmlns="http://www.w3.org/2000/svg">
<path d="M25.1308 12.2515C25.4504 11.4423 25.7625 10.7111 26.0658 10.0517L23.9994 2L21.8285 10.4607C21.8134 10.5199 21.7983 10.579 21.782 10.6369C22.5559 12.2578 23.2732 14.0272 23.8811 15.7803C24.2523 14.6023 24.6727 13.4106 25.1308 12.2515Z" fill="black"/>
<path d="M10.6747 26.2294C12.317 25.4491 14.1128 24.728 15.8948 24.1189C13.9039 23.501 11.8916 22.7485 10.0882 21.9254L2 24.0006L10.4595 26.1715C10.5312 26.1904 10.6029 26.2093 10.6747 26.2294Z" fill="black"/>
<path d="M22.8692 35.7483C22.5495 36.5588 22.2362 37.2912 21.9341 37.9507L23.9993 45.9998L26.1702 37.5404C26.1853 37.4812 26.2004 37.4221 26.2167 37.3642C25.4428 35.7433 24.7254 33.9739 24.1189 32.2196C23.7476 33.3975 23.326 34.5893 22.8692 35.7483Z" fill="black"/>
<path d="M37.3215 21.7719C35.6804 22.5521 33.8859 23.272 32.1039 23.8824C34.0948 24.499 36.1071 25.2516 37.9117 26.0759L45.9999 24.0007L37.5392 21.8298C37.4662 21.8109 37.3932 21.792 37.3215 21.7719Z" fill="black"/>
<path d="M35.6981 26.7652C32.5255 25.4765 28.9036 24.4231 26.0444 23.9701C28.7803 23.4541 32.2033 22.363 35.2501 21.0517C38.1358 19.8096 40.6829 18.3686 41.9817 17.0296C45.0813 13.8381 45.007 8.73752 41.8155 5.6379C40.25 4.11892 38.2264 3.36133 36.204 3.36133C34.1817 3.36133 32.0045 4.17807 30.4251 5.80527C29.1905 7.07633 27.8805 9.50392 26.7504 12.2675C25.473 15.3885 24.4235 18.9374 23.9654 21.7325C23.4469 19.0595 22.3608 15.7069 21.0646 12.7143C19.8149 9.83491 18.3702 7.28902 17.0438 6.00034C15.4782 4.48011 13.4546 3.72377 11.4322 3.72377C9.40987 3.72377 7.23145 4.54051 5.65207 6.16645C2.55245 9.35794 2.62669 14.4585 5.81944 17.5582C7.10056 18.804 9.53067 20.1091 12.3006 21.2342C15.4732 22.5241 19.0938 23.5762 21.9518 24.0292C19.2171 24.5452 15.7928 25.6363 12.7461 26.9489C9.8604 28.1923 7.31325 29.632 6.01451 30.9697C2.91489 34.1612 2.98913 39.2618 6.18188 42.3614C7.74616 43.8816 9.77105 44.638 11.7934 44.638C13.8158 44.638 15.9929 43.8212 17.5723 42.1953C18.8056 40.9242 20.1157 38.4966 21.2458 35.733C22.5232 32.612 23.574 29.0631 24.0321 26.268C24.5506 28.9398 25.6354 32.2911 26.9341 35.2825C28.1813 38.1631 29.6272 40.7115 30.9537 41.999C32.5192 43.5192 34.5428 44.2768 36.5652 44.2768C38.5876 44.2768 40.7647 43.4588 42.3441 41.8328C45.4437 38.6414 45.3695 33.542 42.178 30.4411C40.8956 29.1965 38.468 27.8902 35.6981 26.7652ZM39.1363 39.1372C38.0666 40.2056 36.939 40.8097 32.7269 36.5976C28.8961 32.7668 24.7179 26.8042 23.9931 24.4684C23.238 26.8394 19.0825 32.7467 15.2706 36.5586C11.0585 40.7707 9.93088 40.1666 8.86243 39.0982C7.79399 38.0297 7.18867 36.9009 11.4008 32.6888C15.1724 28.9171 21.0092 24.8095 23.4179 23.9927C20.9866 23.1458 15.1913 19.062 11.4398 15.3105C7.22767 11.0984 7.83175 9.97082 8.90019 8.90111C9.96989 7.83267 11.0975 7.22861 15.3096 11.4407C19.0624 15.1935 23.1474 20.9762 23.9931 23.4164C24.8123 21.0064 28.9175 15.1721 32.6878 11.4017C36.9 7.18959 38.0275 7.79367 39.0973 8.86211C40.1657 9.93181 40.7698 11.0594 36.5576 15.2715C32.747 19.0822 26.8422 23.2364 24.4688 23.994C26.8158 24.7164 32.7646 28.8957 36.5967 32.7278C40.8088 36.9399 40.2047 38.0675 39.1363 39.1372Z" fill="black"/>
</svg>
